nColumns=19
nRows=101
DataType=double
version=3
OpenSimVersion=4.1
endheader
time	ground_force_1_vx	ground_force_1_vy	ground_force_1_vz	ground_force_1_px	ground_force_1_py	ground_force_1_pz	ground_force_1_mx	ground_force_1_my	ground_force_1_mz	ground_force_2_vx	ground_force_2_vy	ground_force_2_vz	ground_force_2_px	ground_force_2_py	ground_force_2_pz	ground_force_2_mx	ground_force_2_my	ground_force_2_mz
0	-97.293	504.081	27.3373	0.106064	0.006	-0.222671	0	0.581915	0	0	0	0	0.627135	0	-0.372107	0	0	0
0.01	-104.807	528.894	21.9789	0.110222	0.006	-0.221386	0	0.408962	0	0	0	0	0.627135	0	-0.372107	0	0	0
0.02	-112.648	556.393	15.9183	0.115327	0.006	-0.219815	0	0.250119	0	0	0	0	0.627135	0	-0.372107	0	0	0
0.03	-120.546	586.162	9.30294	0.120518	0.006	-0.218231	0	0.119378	0	0	0	0	0.627135	0	-0.372107	0	0	0
0.04	-128.22	617.906	2.32561	0.125655	0.006	-0.216683	0	0.028955	0	0	0	0	0.627135	0	-0.372107	0	0	0
0.05	-135.403	651.429	-4.81623	0.130616	0.006	-0.215213	0	-0.014156	0	0	0	0	0.627135	0	-0.372107	0	0	0
0.06	-141.858	686.484	-11.9269	0.135303	0.006	-0.213853	0	-0.008782	0	0	0	0	0.627135	0	-0.372107	0	0	0
0.07	-147.37	722.625	-18.7933	0.139645	0.006	-0.212627	0	0.043019	0	0	0	0	0.627135	0	-0.372107	0	0	0
0.08	-151.737	759.135	-25.1905	0.1436	0.006	-0.211548	0	0.137024	0	0	0	0	0.627135	0	-0.372107	0	0	0
0.09	-154.783	795.069	-30.9334	0.147157	0.006	-0.210614	0	0.264326	0	0	0	0	0.627135	0	-0.372107	0	0	0
0.1	-156.395	829.347	-35.9196	0.150334	0.006	-0.209812	0	0.411109	0	0	0	0	0.627135	0	-0.372107	0	0	0
0.11	-156.523	860.861	-40.125	0.153169	0.006	-0.209118	0	0.562026	0	0	0	0	0.627135	0	-0.372107	0	0	0
0.12	-155.188	888.605	-43.5816	0.155711	0.006	-0.208506	0	0.702726	0	0	0	0	0.627135	0	-0.372107	0	0	0
0.13	-152.469	911.784	-46.3566	0.158011	0.006	-0.207953	0	0.820839	0	0	0	0	0.627135	0	-0.372107	0	0	0
0.14	-148.487	929.873	-48.5262	0.16012	0.006	-0.207438	0	0.906788	0	0	0	0	0.627135	0	-0.372107	0	0	0
0.15	-143.389	942.626	-50.1584	0.162081	0.006	-0.206947	0	0.954132	0	0	0	0	0.627135	0	-0.372107	0	0	0
0.16	-137.338	950.053	-51.3092	0.163931	0.006	-0.206471	0	0.959683	0	0	0	0	0.627135	0	-0.372107	0	0	0
0.17	-130.504	952.374	-52.0237	0.165701	0.006	-0.206005	0	0.923409	0	0	0	0	0.627135	0	-0.372107	0	0	0
0.18	-123.057	949.973	-52.3388	0.167419	0.006	-0.205546	0	0.84776	0	0	0	0	0.627135	0	-0.372107	0	0	0
0.19	-115.17	943.356	-52.286	0.169107	0.006	-0.205096	0	0.736936	0	0	0	0	0.627135	0	-0.372107	0	0	0
0.2	-107.007	933.121	-51.8958	0.170789	0.006	-0.204659	0	0.596184	0	0	0	0	0.627135	0	-0.372107	0	0	0
0.21	-98.7273	919.94	-51.2047	0.172483	0.006	-0.204237	0	0.43127	0	0	0	0	0.627135	0	-0.372107	0	0	0
0.22	-90.4718	904.539	-50.2586	0.174208	0.006	-0.203836	0	0.248215	0	0	0	0	0.627135	0	-0.372107	0	0	0
0.23	-82.3617	887.668	-49.1106	0.175977	0.006	-0.203462	0	0.052958	0	0	0	0	0.627135	0	-0.372107	0	0	0
0.24	-74.4942	870.072	-47.8142	0.177804	0.006	-0.203119	0	-0.14896	0	0	0	0	0.627135	0	-0.372107	0	0	0
0.25	-66.9449	852.461	-46.4161	0.179698	0.006	-0.202813	0	-0.352739	0	0	0	0	0.627135	0	-0.372107	0	0	0
0.26	-59.7693	835.473	-44.9541	0.181668	0.006	-0.202549	0	-0.55454	0	0	0	0	0.627135	0	-0.372107	0	0	0
0.27	-53.0051	819.662	-43.4613	0.183721	0.006	-0.202328	0	-0.751429	0	0	0	0	0.627135	0	-0.372107	0	0	0
0.28	-46.6746	805.468	-41.9738	0.185863	0.006	-0.202151	0	-0.94104	0	0	0	0	0.627135	0	-0.372107	0	0	0
0.29	-40.7865	793.207	-40.5346	0.188102	0.006	-0.202012	0	-1.12137	0	0	0	0	0.627135	0	-0.372107	0	0	0
0.3	-35.3375	783.082	-39.1926	0.190443	0.006	-0.201906	0	-1.29071	0	0	0	0	0.627135	0	-0.372107	0	0	0
0.31	-30.3133	775.193	-38.0003	0.192892	0.006	-0.201824	0	-1.44763	0	0	0	0	0.627135	0	-0.372107	0	0	0
0.32	-25.6879	769.561	-37.0111	0.195449	0.006	-0.201757	0	-1.59108	0	0	0	0	0.627135	0	-0.372107	0	0	0
0.33	-21.4236	766.147	-36.2773	0.19811	0.006	-0.201697	0	-1.72061	0	0	0	0	0.627135	0	-0.372107	0	0	0
0.34	-17.4721	764.862	-35.8454	0.200867	0.006	-0.201636	0	-1.8366	0	0	0	0	0.627135	0	-0.372107	0	0	0
0.35	-13.778	765.581	-35.7509	0.203708	0.006	-0.201569	0	-1.94026	0	0	0	0	0.627135	0	-0.372107	0	0	0
0.36	-10.2805	768.15	-36.0136	0.206615	0.006	-0.20149	0	-2.03356	0	0	0	0	0.627135	0	-0.372107	0	0	0
0.37	-6.915	772.403	-36.639	0.209574	0.006	-0.201395	0	-2.11917	0	0	0	0	0.627135	0	-0.372107	0	0	0
0.38	-3.616	778.172	-37.6229	0.212571	0.006	-0.201281	0	-2.20024	0	0	0	0	0.627135	0	-0.372107	0	0	0
0.39	-0.321089	785.302	-38.9578	0.215594	0.006	-0.20114	0	-2.28006	0	0	0	0	0.627135	0	-0.372107	0	0	0
0.4	3.02502	793.642	-40.6368	0.218639	0.006	-0.200969	0	-2.36174	0	0	0	0	0.627135	0	-0.372107	0	0	0
0.41	6.46852	803.038	-42.6497	0.221704	0.006	-0.200762	0	-2.44797	0	0	0	0	0.627135	0	-0.372107	0	0	0
0.42	10.0463	813.323	-44.9778	0.224793	0.006	-0.200516	0	-2.54097	0	0	0	0	0.627135	0	-0.372107	0	0	0
0.43	13.7877	824.319	-47.589	0.227913	0.006	-0.200231	0	-2.64261	0	0	0	0	0.627135	0	-0.372107	0	0	0
0.44	17.7178	835.842	-50.4357	0.231073	0.006	-0.199908	0	-2.7547	0	0	0	0	0.627135	0	-0.372107	0	0	0
0.45	21.8595	847.712	-53.4571	0.23428	0.006	-0.199553	0	-2.87894	0	0	0	0	0.627135	0	-0.372107	0	0	0
0.46	26.2347	859.755	-56.5838	0.237539	0.006	-0.199173	0	-3.01653	0	0	0	0	0.627135	0	-0.372107	0	0	0
0.47	30.864	871.804	-59.7414	0.24085	0.006	-0.198779	0	-3.16776	0	0	0	0	0.627135	0	-0.372107	0	0	0
0.48	35.7642	883.699	-62.8539	0.244209	0.006	-0.198383	0	-3.33201	0	0	0	0	0.627135	0	-0.372107	0	0	0
0.49	40.9459	895.283	-65.8453	0.247607	0.006	-0.197997	0	-3.50765	0	0	0	0	0.627135	0	-0.372107	0	0	0
0.5	46.4127	906.39	-68.641	0.251032	0.006	-0.197635	0	-3.69218	0	0	0	0	0.627135	0	-0.372107	0	0	0
0.51	52.1584	916.84	-71.1701	0.254464	0.006	-0.197311	0	-3.8825	0	0	0	0	0.627135	0	-0.372107	0	0	0
0.52	58.1637	926.412	-73.3681	0.257884	0.006	-0.197037	0	-4.07493	0	0	0	0	0.627135	0	-0.372107	0	0	0
0.53	64.3951	934.833	-75.1799	0.261267	0.006	-0.196824	0	-4.26537	0	0	0	0	0.627135	0	-0.372107	0	0	0
0.54	70.8077	941.77	-76.5619	0.264588	0.006	-0.196683	0	-4.4494	0	0	0	0	0.627135	0	-0.372107	0	0	0
0.55	77.3474	946.833	-77.4803	0.267822	0.006	-0.196621	0	-4.62272	0	0	0	0	0.627135	0	-0.372107	0	0	0
0.56	83.9485	949.576	-77.908	0.270945	0.006	-0.196643	0	-4.78165	0	3.45152	20.7743	-6.56761	0.627135	0.006	-0.372107	0	0.040941	0
0.57	90.5287	949.502	-77.8213	0.273936	0.006	-0.196753	0	-4.92341	0	2.11681	39.7059	-6.72579	0.67994	0.006	-0.393366	0	0.319761	0
0.58	96.9848	946.067	-77.1976	0.276781	0.006	-0.196951	0	-5.04605	0	-0.0589982	63.5464	-6.58792	0.710514	0.006	-0.405398	0	0.439516	0
0.59	103.188	938.695	-76.0177	0.279472	0.006	-0.197234	0	-5.14795	0	-3.27032	92.5939	-6.03727	0.728496	0.006	-0.412253	0	0.502947	0
0.6	108.981	926.804	-74.2725	0.282008	0.006	-0.197598	0	-5.22675	0	-7.71667	126.883	-4.93947	0.740842	0.006	-0.416793	0	0.537081	0
0.61	114.181	909.85	-71.9695	0.284396	0.006	-0.198036	0	-5.27889	0	-13.5745	166.111	-3.14958	0.75029	0.006	-0.420138	0	0.550898	0
0.62	118.591	887.374	-69.1368	0.286648	0.006	-0.198538	0	-5.29979	0	-20.9144	209.639	-0.525345	0.758147	0.006	-0.422829	0	0.547499	0
0.63	122.004	859.057	-65.8254	0.28878	0.006	-0.199092	0	-5.28458	0	-29.627	256.621	3.04471	0.76511	0.006	-0.425153	0	0.526267	0
0.64	124.226	824.77	-62.1098	0.290811	0.006	-0.199685	0	-5.22868	0	-39.4471	306.159	7.6078	0.771565	0.006	-0.427266	0	0.482093	0
0.65	125.079	784.602	-58.0852	0.292762	0.006	-0.200305	0	-5.12816	0	-50.052	357.355	13.1199	0.777728	0.006	-0.429249	0	0.405276	0
0.66	124.422	738.882	-53.8582	0.294654	0.006	-0.200936	0	-4.97992	0	-61.1326	409.313	19.4336	0.78371	0.006	-0.431134	0	0.283055	0
0.67	122.156	688.175	-49.5362	0.296511	0.006	-0.201565	0	-4.78228	0	-72.3879	461.139	26.3057	0.789563	0.006	-0.432931	0	0.102534	0
0.68	118.235	633.265	-45.2162	0.298357	0.006	-0.202179	0	-4.53561	0	-83.4876	511.945	33.4271	0.795296	0.006	-0.434639	0	-0.145381	0
0.69	112.673	575.128	-40.9787	0.300222	0.006	-0.202766	0	-4.24291	0	-94.0827	560.928	40.4823	0.800904	0.006	-0.436253	0	-0.462011	0
0.7	105.551	514.887	-36.886	0.302139	0.006	-0.203314	0	-3.91002	0	-103.876	607.515	47.2252	0.806381	0.006	-0.437779	0	-0.839047	0
0.71	97.0207	453.78	-32.9841	0.304148	0.006	-0.203815	0	-3.54533	0	-112.679	651.44	53.4977	0.811726	0.006	-0.439222	0	-1.26211	0
0.72	87.3062	393.105	-29.306	0.3063	0.006	-0.204263	0	-3.1589	0	-120.379	692.67	59.1855	0.816938	0.006	-0.440591	0	-1.71598	0
0.73	76.7064	334.156	-25.8745	0.308663	0.006	-0.204651	0	-2.76124	0	-126.904	731.261	64.1908	0.822009	0.006	-0.441893	0	-2.18552	0
0.74	65.5889	278.155	-22.7036	0.311326	0.006	-0.204975	0	-2.3623	0	-132.214	767.233	68.4468	0.826928	0.006	-0.443131	0	-2.65413	0
0.75	54.3742	226.168	-19.7971	0.314414	0.006	-0.205231	0	-1.97096	0	-136.285	800.502	71.9311	0.831685	0.006	-0.444314	0	-3.1042	0
0.76	43.5002	179.032	-17.146	0.318111	0.006	-0.205412	0	-1.5945	0	-139.115	830.854	74.662	0.836268	0.006	-0.44545	0	-3.51927	0
0.77	33.3692	137.298	-14.7292	0.322717	0.006	-0.205509	0	-1.23822	0	-140.717	857.994	76.6956	0.840674	0.006	-0.44655	0	-3.88573	0
0.78	24.2967	101.218	-12.5183	0.328776	0.006	-0.205497	0	-0.904961	0	-141.124	881.617	78.1204	0.8449	0.006	-0.447625	0	-4.1938	0
0.79	16.4794	70.7792	-10.4861	0.337408	0.006	-0.205323	0	-0.593793	0	-140.382	901.469	79.0403	0.848947	0.006	-0.448683	0	-4.43787	0
0.8	9.99455	45.7587	-8.6144	0.351312	0.006	-0.204845	0	-0.296152	0	-138.554	917.395	79.5552	0.852817	0.006	-0.449732	0	-4.61622	0
0.81	4.82378	25.7667	-6.89538	0.378958	0.006	-0.203606	0	0.020925	0	-135.721	929.362	79.7493	0.856515	0.006	-0.450776	0	-4.7305	0
0.82	0	0	0	0.407452	0	-0.2036	0	0	0	-131.977	937.465	79.6857	0.860045	0.006	-0.451813	0	-4.78502	0
0.83	0	0	0	0.429399	0	-0.204381	0	0	0	-127.429	941.919	79.4061	0.863414	0.006	-0.452841	0	-4.78603	0
0.84	0	0	0	0.451346	0	-0.205162	0	0	0	-122.186	943.032	78.9345	0.86663	0.006	-0.453853	0	-4.74112	0
0.85	0	0	0	0.473292	0	-0.205942	0	0	0	-116.365	941.175	78.2819	0.869698	0.006	-0.45484	0	-4.6586	0
0.86	0	0	0	0.495239	0	-0.206723	0	0	0	-110.086	936.753	77.4488	0.872627	0.006	-0.455792	0	-4.54688	0
0.87	0	0	0	0.517185	0	-0.207504	0	0	0	-103.472	930.18	76.4271	0.875426	0.006	-0.456695	0	-4.41382	0
0.88	0	0	0	0.539132	0	-0.208284	0	0	0	-96.6427	921.856	75.2043	0.878107	0.006	-0.457537	0	-4.26642	0
0.89	0	0	0	0.561078	0	-0.209065	0	0	0	-89.7173	912.155	73.7673	0.880682	0.006	-0.458305	0	-4.11074	0
0.9	0	0	0	0.583025	0	-0.209846	0	0	0	-82.8074	901.417	72.1068	0.883167	0.006	-0.458987	0	-3.95184	0
0.91	0	0	0	0.604972	0	-0.210626	0	0	0	-76.0146	889.943	70.2216	0.885579	0.006	-0.45957	0	-3.79369	0
0.92	0	0	0	0.626918	0	-0.211407	0	0	0	-69.425	877.996	68.1207	0.887932	0.006	-0.460046	0	-3.63913	0
0.93	0	0	0	0.648865	0	-0.212188	0	0	0	-63.106	865.813	65.8253	0.89024	0.006	-0.460406	0	-3.48985	0
0.94	0	0	0	0.670811	0	-0.212968	0	0	0	-57.1049	853.614	63.3676	0.892515	0.006	-0.460643	0	-3.3466	0
0.95	0	0	0	0.692758	0	-0.213749	0	0	0	-51.4501	841.607	60.7898	0.894762	0.006	-0.460754	0	-3.20944	0
0.96	0	0	0	0.714705	0	-0.21453	0	0	0	-46.1531	829.991	58.1416	0.896986	0.006	-0.460737	0	-3.07787	0
0.97	0	0	0	0.736651	0	-0.21531	0	0	0	-41.2089	818.959	55.4772	0.899186	0.006	-0.46059	0	-2.95118	0
0.98	0	0	0	0.758598	0	-0.216091	0	0	0	-36.5986	808.694	52.8533	0.901357	0.006	-0.460316	0	-2.82865	0
0.99	0	0	0	0.780544	0	-0.216872	0	0	0	-32.2917	799.369	50.3259	0.903493	0.006	-0.459914	0	-2.70961	0
1	0	0	0	0.802491	0	-0.217652	0	0	0	-28.2493	791.139	47.9452	0.905588	0.006	-0.459389	0	-2.59326	0
